<svg width="22" height="18" viewBox="0 0 22 18" fill="none" xmlns="http://www.w3.org/2000/svg">
<path d="M9.69855 15.5626L10.1735 14.9821L10.1383 14.9533L10.0999 14.929L9.69855 15.5626ZM17.4902 14.4376L16.7943 14.158L16.7823 14.1877L16.773 14.2184L17.4902 14.4376ZM19.6902 8.9626L19.0029 8.66256L18.9984 8.6727L18.9943 8.68296L19.6902 8.9626ZM13.3652 6.1126L12.6284 5.97189L12.6264 5.9836L13.3652 6.1126ZM13.8236 3.7126L13.0998 3.51602L13.0922 3.54372L13.0869 3.57191L13.8236 3.7126ZM12.6319 2.0626L12.4119 2.77961L12.4232 2.78307L12.4345 2.78617L12.6319 2.0626ZM10.6152 2.5876L11.1947 3.06368L11.1966 3.06135L10.6152 2.5876ZM6.45555 14.3962L9.29722 16.1962L10.0999 14.929L7.25822 13.129L6.45555 14.3962ZM9.22362 16.1431C9.54243 16.4039 9.97721 16.548 10.3299 16.6304C10.7052 16.7181 11.1062 16.7626 11.4402 16.7626V15.2626C11.2242 15.2626 10.9377 15.2321 10.6714 15.1698C10.3824 15.1022 10.2213 15.0213 10.1735 14.9821L9.22362 16.1431ZM11.4402 16.7626H14.9236V15.2626H11.4402V16.7626ZM14.9236 16.7626C15.618 16.7626 16.3231 16.5524 16.9015 16.2061C17.4721 15.8645 17.9986 15.3404 18.2075 14.6568L16.773 14.2184C16.7069 14.4348 16.5 14.6982 16.131 14.9191C15.7699 15.1353 15.3291 15.2626 14.9236 15.2626V16.7626ZM18.1861 14.7172L20.3861 9.24224L18.9943 8.68296L16.7943 14.158L18.1861 14.7172ZM20.3776 9.26264C20.7179 8.48305 20.5927 7.67883 20.0642 7.09195C19.5643 6.53683 18.7864 6.2626 17.9486 6.2626V7.7626C18.4857 7.7626 18.8078 7.93836 18.9496 8.09575C19.0627 8.22136 19.1209 8.39214 19.0029 8.66256L20.3776 9.26264ZM17.9486 6.2626H14.2819V7.7626H17.9486V6.2626ZM14.2819 6.2626C14.1693 6.2626 14.1077 6.22324 14.0929 6.20952C14.0877 6.20473 14.0939 6.20882 14.0993 6.2239C14.1053 6.24083 14.1026 6.25004 14.104 6.2416L12.6264 5.9836C12.5338 6.51409 12.7281 6.98961 13.073 7.30942C13.4019 7.61446 13.8444 7.7626 14.2819 7.7626V6.2626ZM14.1019 6.25328L14.5602 3.85328L13.0869 3.57191L12.6285 5.97191L14.1019 6.25328ZM14.5473 3.90918C14.877 2.69555 13.8985 1.63064 12.8292 1.33903L12.4345 2.78617C13.0153 2.94456 13.1368 3.37964 13.0998 3.51602L14.5473 3.90918ZM12.8519 1.34559C12.3194 1.18221 11.7568 1.21672 11.283 1.34999C10.8193 1.48041 10.3438 1.73336 10.0338 2.11384L11.1966 3.06135C11.2533 2.99184 11.4195 2.86979 11.6891 2.79396C11.9486 2.72097 12.211 2.71798 12.4119 2.77961L12.8519 1.34559ZM10.0357 2.11152L6.27736 6.68652L7.43641 7.63868L11.1947 3.06368L10.0357 2.11152ZM2.93188 13.7626V6.4126H1.43188V13.7626H2.93188ZM2.93188 6.4126C2.93188 6.01512 3.03093 5.93383 3.06931 5.90484C3.1628 5.83423 3.40916 5.7376 4.01522 5.7376V4.2376C3.33795 4.2376 2.66763 4.32847 2.1653 4.70786C1.60784 5.12887 1.43188 5.76007 1.43188 6.4126H2.93188ZM4.01522 5.7376H4.93188V4.2376H4.01522V5.7376ZM4.93188 5.7376C5.53795 5.7376 5.7843 5.83423 5.87779 5.90484C5.91618 5.93383 6.01522 6.01512 6.01522 6.4126H7.51522C7.51522 5.76007 7.33926 5.12887 6.78181 4.70786C6.27947 4.32847 5.60916 4.2376 4.93188 4.2376V5.7376ZM6.01522 6.4126V13.7626H7.51522V6.4126H6.01522ZM6.01522 13.7626C6.01522 14.1601 5.91618 14.2414 5.87779 14.2704C5.7843 14.341 5.53795 14.4376 4.93188 14.4376V15.9376C5.60916 15.9376 6.27947 15.8467 6.78181 15.4673C7.33926 15.0463 7.51522 14.4151 7.51522 13.7626H6.01522ZM4.93188 14.4376H4.01522V15.9376H4.93188V14.4376ZM4.01522 14.4376C3.40916 14.4376 3.1628 14.341 3.06931 14.2704C3.03093 14.2414 2.93188 14.1601 2.93188 13.7626H1.43188C1.43188 14.4151 1.60784 15.0463 2.16529 15.4673C2.66763 15.8467 3.33795 15.9376 4.01522 15.9376V14.4376Z" fill="#FCFDFF"/>
</svg>
