<svg width="28" height="28" viewBox="0 0 28 28" fill="none" xmlns="http://www.w3.org/2000/svg">
<path d="M17.3378 21C17.3378 21.4596 17.2481 21.9148 17.0738 22.3394C16.8996 22.764 16.6442 23.1499 16.3222 23.4749C16.0002 23.7999 15.6179 24.0577 15.1972 24.2336C14.7765 24.4095 14.3256 24.5 13.8702 24.5C13.4148 24.5 12.9639 24.4095 12.5432 24.2336C12.1225 24.0577 11.7402 23.7999 11.4182 23.4749C11.0962 23.1499 10.8408 22.764 10.6666 22.3394C10.4923 21.9148 10.4026 21.4596 10.4026 21V19.8333H4.62329C4.62329 19.8333 6.93502 15.1667 6.93502 10.5C6.93502 6.68733 10.0928 3.5 13.8702 3.5C17.6476 3.5 20.8054 6.68733 20.8054 10.5C20.8054 14 23.1171 19.8333 23.1171 19.8333H17.3378V21Z" fill="white"/>
<path d="M10.4026 19.8333V21C10.4026 21.4596 10.4923 21.9148 10.6666 22.3394C10.8408 22.764 11.0962 23.1499 11.4182 23.4749C11.7402 23.7999 12.1225 24.0577 12.5432 24.2336C12.9639 24.4095 13.4148 24.5 13.8702 24.5C14.3256 24.5 14.7765 24.4095 15.1972 24.2336C15.6179 24.0577 16.0002 23.7999 16.3222 23.4749C16.6442 23.1499 16.8996 22.764 17.0738 22.3394C17.2481 21.9148 17.3378 21.4596 17.3378 21V19.8333M10.4026 19.8333H4.62329C4.62329 19.8333 6.93502 15.1667 6.93502 10.5C6.93502 6.68733 10.0928 3.5 13.8702 3.5C17.6476 3.5 20.8054 6.68733 20.8054 10.5C20.8054 14 23.1171 19.8333 23.1171 19.8333H17.3378M10.4026 19.8333H17.3378" stroke="white" stroke-width="2" stroke-linecap="round" stroke-linejoin="round"/>
</svg>
